<svg xmlns="http://www.w3.org/2000/svg" width="22" height="22" viewBox="0 0 22 22"><path fill="#000000" d="M13.029505 11.677344 C12.849548 11.681546 12.566596 11.723160 12.394588 11.770569 L12.256354 11.808990 L12.264197 11.849261 C12.278867 11.926793 12.431559 12.187943 12.589277 12.404232 L12.748490 12.621107 L12.956042 12.814551 C13.070515 12.920071 13.225637 13.048877 13.300227 13.100978 C13.375141 13.152856 13.520158 13.237885 13.622784 13.289781 C13.725636 13.341451 13.884064 13.409154 13.974810 13.440693 C14.065679 13.471790 14.223116 13.515190 14.324658 13.536931 L14.509622 13.575955 L14.834529 13.590097 L15.160160 13.602649 L15.360977 13.580224 C15.471578 13.567831 15.569942 13.550371 15.579886 13.541405 L15.597898 13.525163 L15.561419 13.413669 C15.502858 13.234164 15.378001 12.972362 15.276419 12.816018 C15.224852 12.736069 15.137585 12.615636 15.082693 12.548290 C15.027873 12.480806 14.901682 12.358534 14.802479 12.276537 C14.703285 12.193917 14.569667 12.095974 14.505229 12.059097 C14.322046 11.952998 14.076685 11.848120 13.880936 11.792282 L13.701911 11.740217 L13.433784 11.707754 C13.286736 11.689200 13.104782 11.675422 13.029505 11.677344 Z"/></svg>